# xmcd
#
# Track frame offsets: 
#        150
#        25011
#        47076
#        68679
#        90333
#        108026
#
# Disc length: 1681 seconds
#
# Revision: 0
# Processed by: cddbd v1.5.2PL0 Copyright (c) Steve Scherf et al.
# Submitted via: ExactAudioCopy v1.0b3
#
DISCID=39068f06
DTITLE=神谷 浩史 - ハレイロ
DYEAR=2013
DGENRE=
TTITLE0=ハレのち始まりの日
TTITLE1=GUILTY
TTITLE2=Such a beautiful affair
TTITLE3=Always kissing you
TTITLE4=PARTNER
TTITLE5=everlasting
EXTD=
EXTT0=
EXTT1=
EXTT2=
EXTT3=
EXTT4=
EXTT5=
PLAYORDER=
